<?xml version="1.0" encoding="UTF-8"?>
<svg version="1.1" viewBox="0 0 325.9 151.8" xml:space="preserve" xmlns="http://www.w3.org/2000/svg" xmlns:cc="http://creativecommons.org/ns#" xmlns:dc="http://purl.org/dc/elements/1.1/" xmlns:rdf="http://www.w3.org/1999/02/22-rdf-syntax-ns#"><title>CoMix Wave Films logo</title><metadata><rdf:RDF><cc:Work rdf:about=""><dc:format>image/svg+xml</dc:format><dc:type rdf:resource="http://purl.org/dc/dcmitype/StillImage"/><dc:title/></cc:Work></rdf:RDF></metadata><desc>An animation studio known for animating Kimi no Na Wa and Tenki no Ko</desc>
<style type="text/css">
	.st0{fill:#231815;}
	.st1{fill:#004DA0;}
	.st2{fill:#FFFFFF;}
</style>
<g transform="scale(2.597 2.7)">
	<path class="st0" d="m9.9 47.1c-1.5 0-2.6 1.2-2.6 2.6v6.4h1.9v-3.6h4.7v-1.9h-4.7v-0.9c0-0.4 0.3-0.8 0.8-0.8h3.9v-1.9h-4" style="fill:#231815"/>
	<rect class="st0" x="33.7" y="47.1" width="1.9" height="9" style="fill:#231815"/>
	<path class="st0" d="m57.4 53.5v-6.4h-1.9v6.4c0 1.5 1.2 2.6 2.6 2.6h3.9v-1.9h-3.9c-0.3 0-0.7-0.3-0.7-0.7" style="fill:#231815"/>
	<path class="st0" d="m115.8 50.6h-1.4c-0.4 0-0.8-0.3-0.8-0.5v-0.6c0-0.3 0.3-0.5 0.8-0.5h3.7v-1.9h-3.7c-1.5 0-2.6 1.1-2.6 2.4v0.6c0 1.3 1.2 2.4 2.6 2.4h1.4c0.4 0 0.8 0.3 0.8 0.6v0.6c0 0.3-0.4 0.6-0.8 0.6h-3.7v1.9h3.7c1.5 0 2.6-1.1 2.6-2.5v-0.6c0-1.4-1.2-2.5-2.6-2.5" style="fill:#231815"/>
	<path class="st0" d="m88.9 47.1h-0.6c-0.7 0-1.2 0.3-1.7 0.7-0.5-0.4-1-0.7-1.7-0.7h-0.6c-1.5 0-2.6 1.2-2.6 2.6v6.4h1.9v-6.4c0-0.4 0.3-0.8 0.8-0.8h0.6c0.4 0 0.8 0.3 0.8 0.8v6.4h1.9v-6.4c0-0.4 0.3-0.8 0.8-0.8h0.6c0.4 0 0.8 0.3 0.8 0.8v6.4h1.9v-6.4c-0.2-1.4-1.4-2.6-2.9-2.6" style="fill:#231815"/>
	
		<path class="st1" d="m10.6 0c-5.8 0-10.6 4.2-10.6 9.4v23.9c0 5.2 4.8 9.4 10.6 9.4h104.3c5.9 0 10.6-4.2 10.6-9.4v-23.9c0-5.2-4.8-9.4-10.6-9.4z" style="fill:#004da0"/>
		
			<path class="st2" d="m82.3 34.7c0 0.6-0.6 1.1-1.3 1.1s-1.3-0.5-1.3-1.1v-30.2h-3.3v30.2c0 0.6-0.6 1.1-1.3 1.1s-1.3-0.5-1.3-1.1v-30.2h-3.3v30.2c0 2.1 2.1 3.8 4.6 3.8 1.1 0 2.1-0.3 2.9-0.9h0.1 0.1c0.8 0.6 1.9 0.9 2.9 0.9 2.6 0 4.6-1.7 4.6-3.8v-30.2h-3.3v30.2" style="fill:#fff"/>
			<path class="st2" d="m92.9 12.1h-4v2.7h4.1c0.7 0 1.3 0.5 1.3 1.1v4.8h-1.3c-2.6 0-4.6 1.7-4.6 3.8v10.1c0 2.1 2.1 3.8 4.6 3.8h4.6v-22.5c0-2.1-2.1-3.8-4.7-3.8zm1.3 23.5h-1.3c-0.7 0-1.3-0.5-1.3-1.1v-10c0-0.6 0.6-1.1 1.3-1.1h1.3v12.2z" style="fill:#fff"/>
			<path class="st2" d="m24.3 11.8c-2.6 0-4.6 1.7-4.6 3.8v19.3c0 2.1 2.1 3.8 4.6 3.8 2.6 0 4.6-1.7 4.6-3.8v-19.3c0.1-2.1-2-3.8-4.6-3.8zm1.4 23c0 0.6-0.6 1.1-1.3 1.1s-1.3-0.5-1.3-1.1v-19.2c0-0.6 0.6-1.1 1.3-1.1s1.3 0.5 1.3 1.1z" style="fill:#fff"/>
			<path class="st2" d="m52.7 12.1h-3.2v26.2h3.3v-26.2z" style="fill:#fff"/>
			<path class="st2" d="m39.3 5.3h-0.1c-0.8-0.6-1.9-0.9-2.9-0.9-2.6 0-4.6 1.7-4.6 3.8v30.2h3.3v-30.2c0-0.6 0.6-1.1 1.3-1.1s1.3 0.5 1.3 1.1v30.2h3.3v-30.2c0-0.6 0.6-1.1 1.3-1.1s1.3 0.5 1.3 1.1v30.2h3.3v-30.2c0-2.1-2.1-3.8-4.6-3.8-1 0-2 0.3-2.9 0.9z" style="fill:#fff"/>
			<path class="st2" d="m118.1 31.4v3.4c0 0.6-0.6 1.1-1.3 1.1s-1.3-0.5-1.3-1.1v-0.3-7.6h6v-11.3c0-2.1-2.1-3.8-4.6-3.8-2.6 0-4.6 1.7-4.6 3.8v19.2c0 2.1 2.1 3.8 4.6 3.8 2.6 0 4.6-1.7 4.6-3.8v-3.4zm-2.6-15.8c0-0.6 0.6-1.1 1.3-1.1s1.3 0.5 1.3 1.1v8.6h-2.6v-8.6z" style="fill:#fff"/>
			<path class="st2" d="m61.4 18.4c0 1-0.5 2.8-1.1 3.7 0 0-0.1 0.2-0.2 0.3-0.1-0.1-0.2-0.3-0.2-0.3-0.6-0.9-1.1-2.7-1.1-3.7v-6.3h-3.3v6.3c0 1.4 0.6 3.4 1.4 4.7 0 0 1.3 2 1.4 2.1-0.1 0.1-1.4 2.1-1.4 2.1-0.8 1.2-1.4 3.3-1.4 4.7v6.3h3.3v-6.3c0-1 0.5-2.8 1.1-3.7 0 0 0.1-0.2 0.2-0.3 0.1 0.1 0.2 0.3 0.2 0.3 0.6 0.9 1.1 2.7 1.1 3.7v6.3h3.3v-6.3c0-1.4-0.6-3.4-1.4-4.7 0 0-1.3-2-1.4-2.1 0.1-0.1 1.4-2.1 1.4-2.1 0.8-1.3 1.4-3.3 1.4-4.7v-6.3h-3.3v6.3" style="fill:#fff"/>
			<path class="st2" d="m10.6 4.2c-3.5 0-6.4 2.4-6.4 5.2v23.9c0 2.9 2.9 5.2 6.4 5.2s6.4-2.1 6.4-4.8v-8.2h-3.3v8.2c0 1.1-1.4 2.1-3.1 2.1s-3.1-1.2-3.1-2.6v-23.8c0-1.4 1.4-2.6 3.1-2.6s3.1 1 3.1 2.1v6.8h3.3v-6.7c0.1-2.7-2.8-4.8-6.4-4.8" style="fill:#fff"/>
			<path class="st2" d="m106.8 23.6c0 1.3-0.3 3.3-0.6 4.6l-1.2 4.4s-0.1 0.2-0.1 0.4c-0.2-0.8-1.4-5-1.4-5-0.3-1.2-0.6-3.3-0.6-4.5v-11.4h-3.3v11.4c0 1.5 0.3 3.7 0.6 5.1l0.1 0.3 2.8 9.4h3.4l2.9-9.6c0.4-1.5 0.7-3.7 0.7-5.2v-11.4h-3.3v11.5" style="fill:#fff"/>
			<path class="st2" d="m51.1 3.7-2.9 2.9 3 3 3-3z" style="fill:#fff"/>
		
	
</g>
</svg>
